<svg xmlns="http://www.w3.org/2000/svg" width="72" height="72" viewBox="0 0 72 72"><defs><style>.a{fill:#1b1922;}</style></defs><path class="a" d="M33.75,46h-27A6.76,6.76,0,0,1,0,39.25V13.75A6.76,6.76,0,0,1,6.75,7h34.5A6.76,6.76,0,0,1,48,13.75v9a2.25,2.25,0,1,1-4.5,0v-9a2.255,2.255,0,0,0-2.25-2.25H6.75A2.255,2.255,0,0,0,4.5,13.75v25.5A2.255,2.255,0,0,0,6.75,41.5h27a2.25,2.25,0,0,1,0,4.5Z" transform="translate(0 14)"/><path class="a" d="M30.75,25.5a2.251,2.251,0,0,1-2.25-2.25V15a10.5,10.5,0,1,0-21,0v8.25a2.25,2.25,0,1,1-4.5,0V15a15,15,0,0,1,30,0v8.25A2.251,2.251,0,0,1,30.75,25.5Z" transform="translate(6)"/><path class="a" d="M28.75,25h-6a2.25,2.25,0,0,1,0-4.5H26.5V16.75a2.25,2.25,0,0,1,4.5,0v6A2.251,2.251,0,0,1,28.75,25Z" transform="translate(41 29)"/><path class="a" d="M16.25,30.5A2.251,2.251,0,0,1,14,28.25v-6A2.251,2.251,0,0,1,16.25,20h6a2.25,2.25,0,0,1,0,4.5H18.5v3.75A2.251,2.251,0,0,1,16.25,30.5Z" transform="translate(28 40)"/><path class="a" d="M16.441,27.5a2.348,2.348,0,0,1-.654-.1,2.255,2.255,0,0,1-1.5-2.808A14.976,14.976,0,0,1,41.83,21.944a2.253,2.253,0,1,1-3.981,2.109A10.47,10.47,0,0,0,18.595,25.9,2.25,2.25,0,0,1,16.441,27.5Z" transform="translate(28.379 28)"/><path class="a" d="M27.98,33a14.919,14.919,0,0,1-13.209-7.944,2.253,2.253,0,1,1,3.981-2.109,10.471,10.471,0,0,0,19.26-1.866A2.248,2.248,0,1,1,42.3,22.417,14.941,14.941,0,0,1,27.98,33Z" transform="translate(29.02 38.999)"/></svg>